<svg id="Layer_1" data-name="Layer 1" xmlns="http://www.w3.org/2000/svg" xmlns:xlink="http://www.w3.org/1999/xlink" viewBox="0 0 1920 267.18"><defs><style>.cls-1{fill:url(#Degradado_sin_nombre_928);}.cls-2{fill:url(#Degradado_sin_nombre_928-2);}.cls-3{fill:url(#Degradado_sin_nombre_928-3);}.cls-4{fill:url(#Degradado_sin_nombre_928-4);}.cls-5{fill:url(#Degradado_sin_nombre_928-5);}.cls-6{fill:url(#linear-gradient);}.cls-7{fill:url(#linear-gradient-2);}.cls-8{fill:url(#Degradado_sin_nombre_925);}.cls-9{fill:url(#Degradado_sin_nombre_928-6);}.cls-10{fill:url(#Degradado_sin_nombre_928-7);}.cls-11{fill:url(#Degradado_sin_nombre_926);}.cls-12{fill:url(#Degradado_sin_nombre_926-2);}</style><linearGradient id="Degradado_sin_nombre_928" x1="680.2" y1="121.96" x2="842.39" y2="121.96" gradientUnits="userSpaceOnUse"><stop offset="0" stop-color="#3597ff"/><stop offset="0.58" stop-color="#4c53de"/><stop offset="0.73" stop-color="#4d4edb"/><stop offset="0.9" stop-color="#5140d1"/><stop offset="1" stop-color="#5434ca"/></linearGradient><linearGradient id="Degradado_sin_nombre_928-2" x1="852.85" y1="121.96" x2="1048.47" y2="121.96" xlink:href="#Degradado_sin_nombre_928"/><linearGradient id="Degradado_sin_nombre_928-3" x1="1068.26" y1="121.96" x2="1242.95" y2="121.96" xlink:href="#Degradado_sin_nombre_928"/><linearGradient id="Degradado_sin_nombre_928-4" x1="1353.5" y1="121.96" x2="1515.23" y2="121.96" xlink:href="#Degradado_sin_nombre_928"/><linearGradient id="Degradado_sin_nombre_928-5" x1="1521.37" y1="121.96" x2="1716.99" y2="121.96" xlink:href="#Degradado_sin_nombre_928"/><linearGradient id="linear-gradient" x1="1736.77" y1="121.96" x2="1911.92" y2="121.96" xlink:href="#Degradado_sin_nombre_928"/><linearGradient id="linear-gradient-2" x1="38.71" y1="69.31" x2="221.91" y2="69.31" gradientUnits="userSpaceOnUse"><stop offset="0" stop-color="#8127ff"/><stop offset="0.43" stop-color="#bd37ff"/><stop offset="0.63" stop-color="#cd3aff"/><stop offset="1" stop-color="#f441ff"/></linearGradient><linearGradient id="Degradado_sin_nombre_925" x1="8.08" y1="179.62" x2="217.59" y2="179.62" xlink:href="#linear-gradient-2"/><linearGradient id="Degradado_sin_nombre_928-6" x1="392.22" y1="85.51" x2="601.7" y2="85.51" xlink:href="#Degradado_sin_nombre_928"/><linearGradient id="Degradado_sin_nombre_928-7" x1="506.68" y1="-93.94" x2="508.72" y2="230.17" xlink:href="#Degradado_sin_nombre_928"/><linearGradient id="Degradado_sin_nombre_926" x1="222.7" y1="132.31" x2="386.61" y2="132.31" gradientUnits="userSpaceOnUse"><stop offset="0" stop-color="#6418b0"/><stop offset="0.01" stop-color="#661ab3"/><stop offset="0.08" stop-color="#792acf"/><stop offset="0.16" stop-color="#8836e4"/><stop offset="0.25" stop-color="#933ff3"/><stop offset="0.35" stop-color="#9944fc"/><stop offset="0.5" stop-color="#9b46ff"/><stop offset="1" stop-color="#b880ff"/></linearGradient><linearGradient id="Degradado_sin_nombre_926-2" x1="367.48" y1="233.14" x2="517.66" y2="233.14" xlink:href="#Degradado_sin_nombre_926"/></defs><title>logo</title><path class="cls-1" d="M842.39,198.84H761.86q-20.7,0-35.94-6.71A76.82,76.82,0,0,1,700,173.82,75.95,75.95,0,0,1,680.2,122a75.14,75.14,0,0,1,6.6-31.39A77.45,77.45,0,0,1,705,65.32a73.62,73.62,0,0,1,24.22-14.9q14-5.34,32.64-5.34h80.53V85.79H761.86q-10.46,0-17.28,2.73a38.81,38.81,0,0,0-11.83,7.28,37.34,37.34,0,0,0-8.3,11.83,35,35,0,0,0-3.07,14.56,35.39,35.39,0,0,0,2.5,13.3,34,34,0,0,0,7,11,35.33,35.33,0,0,0,12.51,8.64q7.5,3.2,18.42,3.19h80.53Z"/><path class="cls-2" d="M934.51,198.84q-20.7,0-35.94-6.71a76.82,76.82,0,0,1-25.93-18.31A75.95,75.95,0,0,1,852.85,122a75.14,75.14,0,0,1,6.6-31.39,77.43,77.43,0,0,1,18.19-25.25,73.67,73.67,0,0,1,24.23-14.9q14-5.34,32.64-5.34h32.3q18.65,0,32.64,5.34a73.67,73.67,0,0,1,24.23,14.9,77.57,77.57,0,0,1,18.19,25.25,75.14,75.14,0,0,1,6.6,31.39,75.11,75.11,0,0,1-45.72,70.17q-15.24,6.72-35.94,6.71Zm0-113q-10.47,0-17.29,2.73A38.76,38.76,0,0,0,905.4,95.8a37.53,37.53,0,0,0-8.31,11.83,36.33,36.33,0,0,0-.57,27.86,34.24,34.24,0,0,0,7.06,11,35.33,35.33,0,0,0,12.51,8.64q7.5,3.2,18.42,3.19h32.3q10.92,0,18.42-3.19a35.46,35.46,0,0,0,12.52-8.64,34.38,34.38,0,0,0,7-11,35.58,35.58,0,0,0,2.5-13.3,35,35,0,0,0-3.07-14.56,37.66,37.66,0,0,0-8.3-11.83,38.93,38.93,0,0,0-11.83-7.28q-6.83-2.73-17.29-2.73Z"/><path class="cls-3" d="M1161.29,45.08q18.64,0,32.64,5.34a73.67,73.67,0,0,1,24.23,14.9,77.6,77.6,0,0,1,18.2,25.25A75.29,75.29,0,0,1,1243,122a75.11,75.11,0,0,1-45.72,70.17q-15.24,6.72-35.94,6.71h-83q-10,0-10-9.78V54.63q0-9.56,10-9.55Zm-48.9,40.71c-2,0-3,1.07-3,3.19v66.19c0,2.13,1,3.19,3,3.19h48.9q10.92,0,18.43-3.19a35.51,35.51,0,0,0,12.51-8.64,34.38,34.38,0,0,0,7-11,35.39,35.39,0,0,0,2.5-13.3,35,35,0,0,0-3.07-14.56,37.66,37.66,0,0,0-8.3-11.83,38.93,38.93,0,0,0-11.83-7.28q-6.82-2.73-17.29-2.73Z"/><path class="cls-4" d="M1403.54,198.84q-14.1,0-23.77-3.07a35,35,0,0,1-15.47-9.32,36.36,36.36,0,0,1-8.3-15.7,86,86,0,0,1-2.5-21.95V45.08h41.4v99.85c0,5.62.94,9.44,2.84,11.49s5.5,3.07,10.81,3.07h106.68v39.35Z"/><path class="cls-5" d="M1603,198.84q-20.7,0-35.94-6.71A75.46,75.46,0,0,1,1521.37,122,75.14,75.14,0,0,1,1528,90.57a77.6,77.6,0,0,1,18.2-25.25,73.57,73.57,0,0,1,24.23-14.9q14-5.34,32.64-5.34h32.3q18.64,0,32.64,5.34a73.62,73.62,0,0,1,24.22,14.9,77.45,77.45,0,0,1,18.2,25.25A75.14,75.14,0,0,1,1717,122a75.11,75.11,0,0,1-45.72,70.17q-15.24,6.72-35.94,6.71Zm0-113q-10.47,0-17.29,2.73a38.93,38.93,0,0,0-11.83,7.28,37.5,37.5,0,0,0-8.3,11.83,35,35,0,0,0-3.07,14.56,35.39,35.39,0,0,0,2.5,13.3,34.38,34.38,0,0,0,7,11,35.51,35.51,0,0,0,12.51,8.64q7.51,3.2,18.43,3.19h32.3q10.92,0,18.42-3.19a35.42,35.42,0,0,0,12.51-8.64,34.38,34.38,0,0,0,7-11,35.39,35.39,0,0,0,2.51-13.3,35,35,0,0,0-3.08-14.56,37.34,37.34,0,0,0-8.3-11.83,38.81,38.81,0,0,0-11.83-7.28q-6.83-2.73-17.28-2.73Z"/><path class="cls-6" d="M1848.69,45.08q16.38,0,27.41,4.43a55.47,55.47,0,0,1,18.76,12.17,58.47,58.47,0,0,1,12.51,18.65,56.83,56.83,0,0,1,1,42,59.8,59.8,0,0,1-9.9,17.18,56.49,56.49,0,0,1-20,15.12q-12,5.58-29.79,5.58H1778v38.66h-41.18V54.63q0-9.56,10-9.55Zm.91,77.33a26.65,26.65,0,0,0,11-1.93,16.85,16.85,0,0,0,6.71-5.34,17.6,17.6,0,0,0,3.64-10.92,18.41,18.41,0,0,0-3.87-11.6,16.9,16.9,0,0,0-6.71-5,27.51,27.51,0,0,0-10.8-1.82h-68.7c-2,0-3,1.07-3,3.19v33.43Z"/><path class="cls-7" d="M221.91,6.18,74.65,132.44,38.71,100.81,146.48,11.39A22.61,22.61,0,0,1,160.9,6.18Z"/><path class="cls-8" d="M216.69,253.91a2.57,2.57,0,0,1-1.67,4.52H161.37a24,24,0,0,1-15.26-5.5L12.75,142.27a12.94,12.94,0,0,1,0-19.91l26-21.55Z"/><path class="cls-9" d="M597,142.27l-27.18,22.56-34.76-32.15.16-.13-3.91-3.35L393.12,10.71a2.58,2.58,0,0,1,1.69-4.53h53.58a23.86,23.86,0,0,1,15.27,5.52L597,122.36A12.94,12.94,0,0,1,597,142.27Z"/><polygon class="cls-10" points="569.84 164.83 518 207.84 447.05 207.84 535.08 132.68 569.84 164.83"/><path class="cls-11" d="M386.61,258.34l-.1.09H334.88a12.9,12.9,0,0,1-11.94-8L222.7,6.18h46.86a22.6,22.6,0,0,1,20.91,14l76.6,186.64Z"/><path class="cls-12" d="M367.48,207.84H517.66l-57.3,47.56a13.3,13.3,0,0,1-3.41,2,13.13,13.13,0,0,1-5,1H386.51Z"/></svg>