<svg version="1.2" baseProfile="tiny-ps" xmlns="http://www.w3.org/2000/svg" viewBox="0 0 606 268" width="50" height="22">
	<title>logo-svg</title>
	<defs>
		<linearGradient id="grd1" gradientUnits="userSpaceOnUse"  x1="680.2" y1="121.96" x2="842.39" y2="121.96">
			<stop offset="0" stop-color="#3597ff"  />
			<stop offset="0.58" stop-color="#4c53de"  />
			<stop offset="0.73" stop-color="#4d4edb"  />
			<stop offset="0.9" stop-color="#5140d1"  />
			<stop offset="1" stop-color="#5434ca"  />
		</linearGradient>
		<linearGradient id="grd2" gradientUnits="userSpaceOnUse"  x1="167696.144" y1="18797.69" x2="205965.342" y2="18797.69">
			<stop offset="0" stop-color="#3597ff"  />
			<stop offset="0.58" stop-color="#4c53de"  />
			<stop offset="0.73" stop-color="#4d4edb"  />
			<stop offset="0.9" stop-color="#5140d1"  />
			<stop offset="1" stop-color="#5434ca"  />
		</linearGradient>
		<linearGradient id="grd3" gradientUnits="userSpaceOnUse"  x1="187658.344" y1="18802.528" x2="218170.961" y2="18802.528">
			<stop offset="0" stop-color="#3597ff"  />
			<stop offset="0.58" stop-color="#4c53de"  />
			<stop offset="0.73" stop-color="#4d4edb"  />
			<stop offset="0.9" stop-color="#5140d1"  />
			<stop offset="1" stop-color="#5434ca"  />
		</linearGradient>
		<linearGradient id="grd4" gradientUnits="userSpaceOnUse"  x1="220268.814" y1="18797.65" x2="246427.052" y2="18797.65">
			<stop offset="0" stop-color="#3597ff"  />
			<stop offset="0.58" stop-color="#4c53de"  />
			<stop offset="0.73" stop-color="#4d4edb"  />
			<stop offset="0.9" stop-color="#5140d1"  />
			<stop offset="1" stop-color="#5434ca"  />
		</linearGradient>
		<linearGradient id="grd5" gradientUnits="userSpaceOnUse"  x1="299163.752" y1="18802.528" x2="337435.049" y2="18802.528">
			<stop offset="0" stop-color="#3597ff"  />
			<stop offset="0.58" stop-color="#4c53de"  />
			<stop offset="0.73" stop-color="#4d4edb"  />
			<stop offset="0.9" stop-color="#5140d1"  />
			<stop offset="1" stop-color="#5434ca"  />
		</linearGradient>
		<linearGradient id="grd6" gradientUnits="userSpaceOnUse"  x1="305827.293" y1="18801.308" x2="336494.247" y2="18801.308">
			<stop offset="0" stop-color="#3597ff"  />
			<stop offset="0.58" stop-color="#4c53de"  />
			<stop offset="0.73" stop-color="#4d4edb"  />
			<stop offset="0.9" stop-color="#5140d1"  />
			<stop offset="1" stop-color="#5434ca"  />
		</linearGradient>
		<linearGradient id="grd7" gradientUnits="userSpaceOnUse"  x1="38.71" y1="69.31" x2="221.91" y2="69.31">
			<stop offset="0" stop-color="#8127ff"  />
			<stop offset="0.43" stop-color="#bd37ff"  />
			<stop offset="0.63" stop-color="#cd3aff"  />
			<stop offset="1" stop-color="#f441ff"  />
		</linearGradient>
		<linearGradient id="grd8" gradientUnits="userSpaceOnUse"  x1="1700.91" y1="28412.514" x2="45595.151" y2="28412.514">
			<stop offset="0" stop-color="#8127ff"  />
			<stop offset="0.43" stop-color="#bd37ff"  />
			<stop offset="0.63" stop-color="#cd3aff"  />
			<stop offset="1" stop-color="#f441ff"  />
		</linearGradient>
		<linearGradient id="grd9" gradientUnits="userSpaceOnUse"  x1="82540.259" y1="13572.342" x2="126414.537" y2="13572.342">
			<stop offset="0" stop-color="#3597ff"  />
			<stop offset="0.58" stop-color="#4c53de"  />
			<stop offset="0.73" stop-color="#4d4edb"  />
			<stop offset="0.9" stop-color="#5140d1"  />
			<stop offset="1" stop-color="#5434ca"  />
		</linearGradient>
		<linearGradient id="grd10" gradientUnits="userSpaceOnUse"  x1="62662.287" y1="-6927.85" x2="62912.779" y2="17432.257">
			<stop offset="0" stop-color="#3597ff"  />
			<stop offset="0.58" stop-color="#4c53de"  />
			<stop offset="0.73" stop-color="#4d4edb"  />
			<stop offset="0.9" stop-color="#5140d1"  />
			<stop offset="1" stop-color="#5434ca"  />
		</linearGradient>
		<linearGradient id="grd11" gradientUnits="userSpaceOnUse"  x1="222.7" y1="132.31" x2="386.61" y2="132.31">
			<stop offset="0" stop-color="#6418b0"  />
			<stop offset="0.01" stop-color="#661ab3"  />
			<stop offset="0.08" stop-color="#792acf"  />
			<stop offset="0.16" stop-color="#8836e4"  />
			<stop offset="0.25" stop-color="#933ff3"  />
			<stop offset="0.35" stop-color="#9944fc"  />
			<stop offset="0.5" stop-color="#9b46ff"  />
			<stop offset="1" stop-color="#b880ff"  />
		</linearGradient>
		<linearGradient id="grd12" gradientUnits="userSpaceOnUse"  x1="55555.626" y1="11995.398" x2="78109.659" y2="11995.398">
			<stop offset="0" stop-color="#6418b0"  />
			<stop offset="0.01" stop-color="#661ab3"  />
			<stop offset="0.08" stop-color="#792acf"  />
			<stop offset="0.16" stop-color="#8836e4"  />
			<stop offset="0.25" stop-color="#933ff3"  />
			<stop offset="0.35" stop-color="#9944fc"  />
			<stop offset="0.5" stop-color="#9b46ff"  />
			<stop offset="1" stop-color="#b880ff"  />
		</linearGradient>
	</defs>
	<style>
		tspan { white-space:pre }
		.shp0 { fill: url(#grd1) } 
		.shp1 { fill: url(#grd2) } 
		.shp2 { fill: url(#grd3) } 
		.shp3 { fill: url(#grd4) } 
		.shp4 { fill: url(#grd5) } 
		.shp5 { fill: url(#grd6) } 
		.shp6 { fill: url(#grd7) } 
		.shp7 { fill: url(#grd8) } 
		.shp8 { fill: url(#grd9) } 
		.shp9 { fill: url(#grd10) } 
		.shp10 { fill: url(#grd11) } 
		.shp11 { fill: url(#grd12) } 
	</style>
	<path id="Layer" class="shp0" d="M842.39 198.84L761.86 198.84C748.06 198.84 736.08 196.6 725.92 192.13C723.47 191.08 721.08 189.89 718.76 188.59C716.44 187.29 714.18 185.87 712 184.33C709.83 182.79 707.73 181.14 705.73 179.39C703.72 177.63 701.81 175.77 700 173.82C696.81 170.32 693.96 166.53 691.47 162.49C688.99 158.46 686.89 154.21 685.2 149.78C683.51 145.36 682.24 140.79 681.4 136.13C680.56 131.46 680.16 126.74 680.2 122C680.18 119.31 680.3 116.61 680.57 113.93C680.84 111.25 681.25 108.59 681.81 105.95C682.36 103.31 683.06 100.71 683.89 98.14C684.72 95.58 685.7 93.07 686.8 90.61C687.87 88.22 689.06 85.89 690.36 83.63C691.67 81.36 693.09 79.16 694.62 77.04C696.14 74.92 697.78 72.87 699.51 70.92C701.24 68.96 703.08 67.09 705 65.32C706.75 63.7 708.58 62.17 710.48 60.73C712.38 59.29 714.35 57.94 716.38 56.69C718.42 55.44 720.51 54.29 722.65 53.24C724.79 52.2 726.99 51.25 729.22 50.42C738.55 46.86 749.43 45.08 761.86 45.08L842.39 45.08L842.39 85.79L761.86 85.79C754.89 85.79 749.13 86.7 744.58 88.52C743.5 88.94 742.43 89.41 741.39 89.93C740.35 90.45 739.33 91.02 738.34 91.63C737.35 92.24 736.38 92.89 735.45 93.59C734.52 94.28 733.62 95.02 732.75 95.8C731.87 96.64 731.04 97.52 730.25 98.44C729.46 99.36 728.72 100.32 728.02 101.31C727.33 102.3 726.68 103.33 726.08 104.38C725.49 105.44 724.94 106.52 724.45 107.63C723.94 108.77 723.49 109.94 723.1 111.13C722.71 112.31 722.39 113.52 722.13 114.74C721.87 115.97 721.68 117.2 721.56 118.45C721.43 119.69 721.37 120.94 721.38 122.19C721.37 123.32 721.42 124.46 721.52 125.59C721.62 126.72 721.78 127.85 721.99 128.96C722.2 130.08 722.46 131.18 722.78 132.27C723.09 133.36 723.46 134.44 723.88 135.49C724.28 136.51 724.73 137.51 725.22 138.48C725.72 139.46 726.26 140.41 726.85 141.33C727.43 142.25 728.07 143.14 728.74 144.01C729.41 144.87 730.13 145.7 730.88 146.49C731.75 147.42 732.67 148.31 733.64 149.15C734.6 149.98 735.61 150.77 736.66 151.49C737.72 152.22 738.81 152.89 739.93 153.49C741.05 154.1 742.21 154.65 743.39 155.13C748.39 157.26 754.53 158.33 761.81 158.32L842.34 158.32L842.39 198.84Z" />
	<path id="Layer" fill-rule="evenodd" class="shp1" d="M934.51 198.84C920.71 198.84 908.73 196.6 898.57 192.13C896.12 191.08 893.73 189.89 891.41 188.59C889.08 187.29 886.83 185.87 884.65 184.33C882.47 182.79 880.38 181.14 878.37 179.39C876.37 177.63 874.45 175.77 872.64 173.82C869.45 170.32 866.6 166.53 864.12 162.49C861.63 158.46 859.53 154.21 857.84 149.78C856.16 145.36 854.88 140.79 854.05 136.12C853.21 131.46 852.81 126.74 852.85 122C852.83 119.31 852.95 116.61 853.22 113.93C853.49 111.25 853.9 108.59 854.46 105.95C855.01 103.31 855.71 100.71 856.54 98.14C857.37 95.58 858.35 93.07 859.45 90.61C860.52 88.23 861.71 85.9 863.01 83.64C864.32 81.38 865.74 79.18 867.26 77.06C868.79 74.94 870.42 72.9 872.16 70.95C873.89 68.99 875.72 67.13 877.64 65.36C879.39 63.74 881.22 62.21 883.12 60.77C885.03 59.33 887 57.98 889.03 56.73C891.06 55.48 893.15 54.33 895.3 53.28C897.44 52.24 899.63 51.29 901.87 50.46C911.2 46.9 922.08 45.12 934.51 45.12L966.81 45.12C979.24 45.12 990.12 46.9 999.45 50.46C1001.69 51.29 1003.88 52.24 1006.02 53.28C1008.17 54.33 1010.26 55.48 1012.29 56.73C1014.32 57.98 1016.29 59.33 1018.2 60.77C1020.1 62.21 1021.93 63.74 1023.68 65.36C1025.6 67.13 1027.43 69 1029.16 70.95C1030.9 72.9 1032.53 74.94 1034.05 77.06C1035.58 79.18 1037 81.38 1038.3 83.64C1039.61 85.9 1040.8 88.23 1041.87 90.61C1042.97 93.07 1043.95 95.58 1044.78 98.14C1045.61 100.71 1046.31 103.31 1046.86 105.95C1047.42 108.59 1047.83 111.25 1048.1 113.93C1048.37 116.61 1048.49 119.31 1048.47 122C1048.57 129.42 1047.58 136.81 1045.52 143.93C1043.45 151.06 1040.35 157.83 1036.3 164.05C1032.25 170.26 1027.3 175.84 1021.62 180.61C1015.93 185.37 1009.58 189.27 1002.75 192.17C992.59 196.65 980.61 198.89 966.81 198.88L934.51 198.84ZM934.51 85.84C927.53 85.84 921.77 86.75 917.22 88.57C916.14 88.99 915.07 89.46 914.03 89.97C912.99 90.49 911.97 91.05 910.98 91.65C909.99 92.26 909.03 92.91 908.1 93.6C907.17 94.29 906.27 95.03 905.4 95.8C904.52 96.64 903.69 97.52 902.9 98.44C902.11 99.36 901.37 100.32 900.67 101.31C899.97 102.3 899.32 103.33 898.73 104.38C898.13 105.44 897.58 106.52 897.09 107.63C896.13 109.81 895.39 112.09 894.87 114.42C894.36 116.74 894.08 119.12 894.03 121.5C893.98 123.89 894.17 126.27 894.58 128.62C895 130.97 895.65 133.27 896.52 135.49C896.93 136.51 897.38 137.51 897.88 138.48C898.38 139.46 898.93 140.41 899.52 141.33C900.11 142.25 900.75 143.15 901.43 144.01C902.1 144.87 902.82 145.7 903.58 146.49C904.45 147.42 905.37 148.31 906.34 149.15C907.3 149.98 908.31 150.77 909.36 151.49C910.42 152.22 911.51 152.89 912.63 153.49C913.75 154.1 914.91 154.65 916.09 155.13C921.09 157.26 927.23 158.33 934.51 158.32L966.81 158.32C974.09 158.32 980.23 157.26 985.23 155.13C986.41 154.65 987.57 154.1 988.69 153.49C989.82 152.88 990.91 152.22 991.96 151.49C993.01 150.76 994.02 149.98 994.99 149.15C995.96 148.31 996.88 147.42 997.75 146.49C998.5 145.7 999.21 144.87 999.89 144C1000.56 143.14 1001.19 142.25 1001.78 141.32C1002.36 140.4 1002.91 139.45 1003.4 138.48C1003.9 137.5 1004.35 136.51 1004.75 135.49C1005.17 134.43 1005.54 133.36 1005.85 132.27C1006.17 131.18 1006.43 130.08 1006.64 128.96C1006.85 127.84 1007 126.72 1007.11 125.59C1007.21 124.46 1007.26 123.32 1007.25 122.19C1007.26 120.94 1007.2 119.69 1007.07 118.45C1006.95 117.2 1006.76 115.97 1006.5 114.74C1006.24 113.52 1005.92 112.31 1005.53 111.13C1005.14 109.94 1004.69 108.77 1004.18 107.63C1003.69 106.52 1003.14 105.44 1002.54 104.39C1001.95 103.33 1001.3 102.31 1000.6 101.31C999.91 100.32 999.16 99.36 998.37 98.44C997.59 97.52 996.75 96.64 995.88 95.8C995.01 95.02 994.11 94.29 993.18 93.59C992.25 92.89 991.28 92.24 990.29 91.63C989.3 91.02 988.28 90.45 987.24 89.93C986.2 89.42 985.13 88.94 984.05 88.52C979.5 86.7 973.73 85.79 966.76 85.79L934.51 85.84Z" />
	<path id="Layer" fill-rule="evenodd" class="shp2" d="M1161.29 45.08C1173.72 45.08 1184.6 46.86 1193.93 50.42C1196.17 51.25 1198.36 52.2 1200.5 53.24C1202.65 54.29 1204.74 55.44 1206.77 56.69C1208.8 57.94 1210.77 59.29 1212.68 60.73C1214.58 62.17 1216.41 63.7 1218.16 65.32C1220.08 67.09 1221.91 68.96 1223.65 70.91C1225.38 72.86 1227.01 74.9 1228.54 77.02C1230.07 79.14 1231.49 81.34 1232.79 83.6C1234.1 85.86 1235.29 88.19 1236.36 90.57C1237.47 93.03 1238.44 95.55 1239.28 98.11C1240.12 100.68 1240.82 103.29 1241.38 105.93C1241.93 108.57 1242.35 111.23 1242.62 113.92C1242.89 116.6 1243.02 119.3 1243 122C1243.1 129.42 1242.11 136.81 1240.05 143.93C1237.98 151.06 1234.88 157.83 1230.83 164.05C1226.78 170.26 1221.83 175.84 1216.15 180.61C1210.46 185.37 1204.11 189.27 1197.28 192.17C1187.12 196.65 1175.14 198.89 1161.34 198.88L1078.34 198.88C1071.67 198.88 1068.34 195.62 1068.34 189.1L1068.34 54.63C1068.34 48.26 1071.67 45.07 1078.34 45.08L1161.29 45.08ZM1112.39 85.79C1110.39 85.79 1109.39 86.86 1109.39 88.98L1109.39 155.17C1109.39 157.3 1110.39 158.36 1112.39 158.36L1161.29 158.36C1168.57 158.36 1174.71 157.3 1179.72 155.17C1180.9 154.69 1182.06 154.14 1183.18 153.53C1184.3 152.92 1185.39 152.25 1186.44 151.53C1187.49 150.8 1188.5 150.02 1189.47 149.18C1190.44 148.35 1191.36 147.46 1192.23 146.53C1192.98 145.74 1193.69 144.91 1194.37 144.04C1195.04 143.18 1195.67 142.29 1196.26 141.36C1196.84 140.44 1197.39 139.49 1197.88 138.52C1198.38 137.54 1198.83 136.55 1199.23 135.53C1199.65 134.48 1200.02 133.4 1200.33 132.31C1200.65 131.22 1200.91 130.12 1201.12 129C1201.33 127.89 1201.49 126.76 1201.59 125.63C1201.69 124.5 1201.74 123.36 1201.73 122.23C1201.74 120.98 1201.68 119.73 1201.55 118.49C1201.43 117.24 1201.24 116.01 1200.98 114.78C1200.72 113.56 1200.4 112.35 1200.01 111.17C1199.62 109.98 1199.17 108.81 1198.66 107.67C1198.17 106.56 1197.62 105.48 1197.02 104.43C1196.43 103.37 1195.78 102.35 1195.08 101.35C1194.39 100.36 1193.64 99.4 1192.85 98.48C1192.07 97.56 1191.23 96.68 1190.36 95.84C1189.49 95.06 1188.59 94.33 1187.66 93.63C1186.73 92.93 1185.76 92.28 1184.77 91.67C1183.78 91.06 1182.76 90.49 1181.72 89.97C1180.68 89.46 1179.61 88.98 1178.53 88.56C1173.98 86.74 1168.22 85.83 1161.24 85.83L1112.39 85.79Z" />
	<path id="Layer" class="shp3" d="M1403.54 198.84C1394.14 198.84 1386.22 197.82 1379.77 195.77C1378.31 195.35 1376.87 194.83 1375.48 194.22C1374.08 193.61 1372.73 192.91 1371.42 192.13C1370.12 191.34 1368.87 190.47 1367.68 189.52C1366.49 188.57 1365.36 187.55 1364.3 186.45C1363.3 185.34 1362.37 184.17 1361.51 182.94C1360.66 181.71 1359.88 180.44 1359.18 179.11C1358.48 177.79 1357.86 176.43 1357.33 175.03C1356.8 173.63 1356.35 172.2 1356 170.75C1355.56 168.96 1355.17 167.15 1354.85 165.33C1354.52 163.52 1354.25 161.69 1354.04 159.86C1353.83 158.02 1353.68 156.18 1353.59 154.34C1353.5 152.49 1353.47 150.65 1353.5 148.8L1353.5 45.08L1394.9 45.08L1394.9 144.93C1394.9 150.55 1395.84 154.37 1397.74 156.42C1399.64 158.47 1403.24 159.49 1408.55 159.49L1515.23 159.49L1515.23 198.84L1403.54 198.84Z" />
	<path id="Layer" fill-rule="evenodd" class="shp4" d="M1603 198.84C1589.2 198.84 1577.22 196.6 1567.06 192.13C1560.25 189.21 1553.91 185.3 1548.25 180.53C1542.58 175.76 1537.64 170.19 1533.6 163.98C1529.56 157.77 1526.45 151.01 1524.38 143.9C1522.31 136.78 1521.29 129.41 1521.37 122C1521.35 119.3 1521.47 116.6 1521.74 113.92C1522.01 111.23 1522.43 108.57 1522.99 105.93C1523.54 103.29 1524.24 100.68 1525.08 98.11C1525.92 95.55 1526.89 93.03 1528 90.57C1529.07 88.19 1530.26 85.86 1531.57 83.6C1532.87 81.34 1534.29 79.14 1535.82 77.02C1537.35 74.9 1538.98 72.86 1540.71 70.91C1542.45 68.96 1544.28 67.09 1546.2 65.32C1547.95 63.7 1549.78 62.17 1551.68 60.73C1553.59 59.29 1555.56 57.94 1557.59 56.69C1559.62 55.44 1561.71 54.29 1563.86 53.24C1566 52.19 1568.19 51.25 1570.43 50.42C1579.76 46.86 1590.64 45.08 1603.07 45.08L1635.37 45.08C1647.8 45.08 1658.68 46.86 1668.01 50.42C1670.24 51.25 1672.44 52.2 1674.58 53.24C1676.72 54.29 1678.81 55.44 1680.85 56.69C1682.88 57.94 1684.85 59.29 1686.75 60.73C1688.65 62.17 1690.48 63.7 1692.23 65.32C1694.15 67.09 1695.98 68.95 1697.72 70.91C1699.45 72.86 1701.08 74.9 1702.61 77.02C1704.14 79.14 1705.56 81.34 1706.86 83.6C1708.17 85.86 1709.36 88.19 1710.43 90.57C1711.53 93.03 1712.5 95.55 1713.34 98.12C1714.17 100.68 1714.86 103.29 1715.41 105.93C1715.97 108.57 1716.37 111.24 1716.64 113.92C1716.9 116.61 1717.02 119.3 1717 122C1717.1 129.42 1716.11 136.81 1714.05 143.93C1711.98 151.06 1708.88 157.83 1704.83 164.05C1700.78 170.26 1695.83 175.84 1690.15 180.61C1684.46 185.37 1678.11 189.27 1671.28 192.17C1661.12 196.65 1649.14 198.89 1635.34 198.88L1603 198.84ZM1603 85.84C1596.02 85.84 1590.26 86.75 1585.71 88.57C1584.63 88.99 1583.56 89.47 1582.52 89.98C1581.48 90.5 1580.46 91.07 1579.47 91.68C1578.48 92.29 1577.51 92.94 1576.58 93.64C1575.65 94.34 1574.75 95.07 1573.88 95.85C1573.01 96.69 1572.17 97.57 1571.38 98.49C1570.59 99.41 1569.85 100.37 1569.15 101.36C1568.46 102.35 1567.81 103.38 1567.21 104.43C1566.62 105.49 1566.07 106.57 1565.58 107.68C1565.07 108.82 1564.62 109.99 1564.23 111.18C1563.84 112.36 1563.52 113.57 1563.26 114.79C1563 116.02 1562.81 117.25 1562.69 118.5C1562.56 119.74 1562.5 120.99 1562.51 122.24C1562.5 123.37 1562.55 124.51 1562.65 125.64C1562.75 126.77 1562.91 127.9 1563.12 129.01C1563.33 130.13 1563.59 131.23 1563.91 132.32C1564.22 133.41 1564.59 134.49 1565.01 135.54C1565.41 136.56 1565.86 137.55 1566.36 138.53C1566.85 139.5 1567.4 140.45 1567.98 141.37C1568.57 142.3 1569.2 143.19 1569.87 144.05C1570.55 144.92 1571.26 145.75 1572.01 146.54C1572.88 147.47 1573.8 148.36 1574.77 149.19C1575.74 150.03 1576.75 150.81 1577.8 151.54C1578.85 152.26 1579.94 152.93 1581.06 153.54C1582.18 154.15 1583.34 154.7 1584.52 155.18C1589.53 157.31 1595.67 158.38 1602.95 158.37L1635.25 158.37C1642.53 158.37 1648.67 157.31 1653.67 155.18C1654.85 154.7 1656.01 154.15 1657.13 153.54C1658.25 152.93 1659.34 152.26 1660.39 151.54C1661.44 150.81 1662.46 150.03 1663.42 149.2C1664.39 148.36 1665.31 147.47 1666.18 146.54C1666.93 145.75 1667.64 144.92 1668.32 144.05C1668.99 143.19 1669.62 142.3 1670.21 141.37C1670.79 140.45 1671.34 139.5 1671.83 138.53C1672.33 137.55 1672.78 136.56 1673.18 135.54C1673.6 134.49 1673.97 133.41 1674.29 132.32C1674.6 131.23 1674.87 130.13 1675.08 129.01C1675.29 127.9 1675.44 126.77 1675.55 125.64C1675.65 124.51 1675.7 123.38 1675.69 122.24C1675.7 120.99 1675.64 119.74 1675.51 118.5C1675.38 117.25 1675.19 116.02 1674.93 114.79C1674.67 113.57 1674.35 112.36 1673.96 111.17C1673.57 109.99 1673.12 108.82 1672.61 107.68C1672.12 106.57 1671.57 105.49 1670.98 104.43C1670.38 103.38 1669.73 102.35 1669.04 101.36C1668.34 100.37 1667.6 99.41 1666.81 98.49C1666.02 97.57 1665.19 96.69 1664.31 95.85C1663.44 95.07 1662.54 94.33 1661.61 93.64C1660.68 92.94 1659.71 92.29 1658.72 91.68C1657.73 91.07 1656.71 90.5 1655.67 89.98C1654.63 89.46 1653.56 88.99 1652.48 88.57C1647.93 86.75 1642.17 85.84 1635.2 85.84L1603 85.84Z" />
	<path id="Layer" fill-rule="evenodd" class="shp5" d="M1848.69 45.08C1859.61 45.08 1868.75 46.56 1876.1 49.51C1877.85 50.19 1879.56 50.96 1881.23 51.82C1882.9 52.68 1884.53 53.62 1886.1 54.64C1887.67 55.66 1889.2 56.76 1890.66 57.94C1892.12 59.11 1893.52 60.36 1894.86 61.68C1896.19 63.01 1897.45 64.41 1898.65 65.87C1899.85 67.32 1900.97 68.83 1902.02 70.4C1903.07 71.96 1904.04 73.58 1904.93 75.24C1905.83 76.89 1906.64 78.59 1907.37 80.33C1908.78 83.63 1909.87 87.06 1910.62 90.57C1911.38 94.07 1911.81 97.65 1911.89 101.23C1911.98 104.82 1911.72 108.41 1911.13 111.95C1910.54 115.49 1909.62 118.96 1908.37 122.33C1907.79 123.89 1907.15 125.42 1906.44 126.92C1905.73 128.42 1904.97 129.89 1904.14 131.33C1903.31 132.77 1902.42 134.18 1901.47 135.54C1900.53 136.9 1899.53 138.23 1898.47 139.51C1897.11 141.12 1895.67 142.66 1894.14 144.11C1892.61 145.56 1891 146.92 1889.32 148.19C1887.64 149.46 1885.89 150.64 1884.07 151.72C1882.26 152.79 1880.39 153.76 1878.47 154.63C1870.47 158.35 1860.54 160.21 1848.68 160.21L1778 160.21L1778 198.87L1736.82 198.87L1736.82 54.63C1736.82 48.26 1740.15 45.07 1746.82 45.08L1848.69 45.08ZM1849.6 122.41C1850.54 122.45 1851.48 122.43 1852.41 122.37C1853.35 122.3 1854.28 122.19 1855.2 122.03C1856.13 121.87 1857.04 121.65 1857.94 121.4C1858.84 121.14 1859.73 120.83 1860.6 120.48C1861.26 120.19 1861.9 119.86 1862.52 119.48C1863.14 119.11 1863.73 118.69 1864.3 118.24C1864.87 117.79 1865.4 117.31 1865.91 116.79C1866.41 116.27 1866.88 115.72 1867.31 115.14C1867.91 114.36 1868.44 113.54 1868.89 112.68C1869.35 111.81 1869.74 110.91 1870.05 109.99C1870.36 109.06 1870.59 108.11 1870.74 107.14C1870.89 106.17 1870.96 105.2 1870.95 104.22C1870.97 103.18 1870.9 102.14 1870.74 101.11C1870.58 100.09 1870.34 99.08 1870.01 98.09C1869.68 97.1 1869.27 96.15 1868.78 95.23C1868.28 94.31 1867.72 93.44 1867.08 92.62C1866.64 92.07 1866.16 91.55 1865.65 91.06C1865.14 90.58 1864.6 90.12 1864.04 89.7C1863.47 89.28 1862.88 88.89 1862.27 88.54C1861.66 88.2 1861.02 87.89 1860.37 87.62C1859.51 87.29 1858.64 87 1857.75 86.76C1856.87 86.52 1855.97 86.32 1855.06 86.17C1854.16 86.01 1853.24 85.91 1852.32 85.85C1851.41 85.78 1850.49 85.77 1849.57 85.8L1780.87 85.8C1778.87 85.8 1777.87 86.87 1777.87 88.99L1777.87 122.42L1849.6 122.41Z" />
	<path id="Layer" class="shp6" d="M221.91 6.18L74.65 132.44L38.71 100.81L146.48 11.39C147.48 10.56 148.56 9.81 149.69 9.16C150.82 8.52 152.01 7.97 153.23 7.53C154.46 7.08 155.72 6.75 157.01 6.52C158.29 6.29 159.6 6.18 160.9 6.18L221.91 6.18Z" />
	<path id="Layer" class="shp7" d="M216.69 253.91C217.09 254.25 217.37 254.71 217.5 255.21C217.64 255.72 217.61 256.26 217.43 256.75C217.24 257.24 216.92 257.67 216.49 257.97C216.06 258.27 215.54 258.43 215.02 258.43L161.37 258.43C159.99 258.43 158.61 258.31 157.25 258.07C155.9 257.83 154.56 257.48 153.26 257.01C151.96 256.54 150.71 255.96 149.51 255.28C148.31 254.59 147.17 253.81 146.11 252.93L12.75 142.27C11.29 141.06 10.11 139.53 9.3 137.81C8.5 136.09 8.08 134.22 8.08 132.31C8.08 130.41 8.5 128.54 9.3 126.82C10.11 125.1 11.29 123.57 12.75 122.36L38.75 100.81L216.69 253.91Z" />
	<path id="Layer" class="shp8" d="M597 142.27L569.82 164.83L535.06 132.68L535.22 132.55L531.31 129.2L393.12 10.71C392.72 10.37 392.44 9.91 392.31 9.4C392.18 8.89 392.21 8.35 392.39 7.86C392.58 7.37 392.91 6.94 393.34 6.64C393.77 6.34 394.28 6.18 394.81 6.18L448.39 6.18C449.77 6.18 451.15 6.3 452.51 6.54C453.87 6.78 455.21 7.13 456.51 7.6C457.81 8.07 459.06 8.65 460.26 9.34C461.46 10.03 462.6 10.82 463.66 11.7L597 122.36C598.46 123.57 599.64 125.1 600.45 126.82C601.25 128.54 601.67 130.41 601.67 132.31C601.67 134.22 601.25 136.09 600.45 137.81C599.64 139.53 598.46 141.06 597 142.27Z" />
	<path id="Layer" class="shp9" d="M569.84 164.83L518 207.84L447.05 207.84L535.08 132.68L569.84 164.83L569.84 164.83Z" />
	<path id="Layer" class="shp10" d="M386.61 258.34L386.51 258.43L334.88 258.43C333.61 258.43 332.34 258.24 331.12 257.87C329.91 257.5 328.75 256.96 327.69 256.25C326.64 255.54 325.69 254.68 324.88 253.69C324.08 252.71 323.42 251.61 322.94 250.43L222.7 6.18L269.56 6.18C271.79 6.18 274 6.51 276.14 7.15C278.27 7.8 280.29 8.76 282.14 10C284 11.24 285.65 12.75 287.06 14.47C288.47 16.2 289.62 18.12 290.47 20.18L367.07 206.82L386.61 258.34Z" />
	<path id="Layer" class="shp11" d="M367.48 207.84L517.66 207.84L460.36 255.4C460.1 255.61 459.84 255.81 459.57 255.99C459.29 256.18 459.01 256.36 458.73 256.53C458.44 256.69 458.15 256.85 457.86 257C457.56 257.14 457.26 257.28 456.95 257.4C456.55 257.56 456.15 257.71 455.74 257.83C455.33 257.96 454.92 258.06 454.5 258.15C454.08 258.23 453.66 258.29 453.23 258.33C452.81 258.38 452.38 258.4 451.95 258.4L386.51 258.4L367.48 207.84Z" />
</svg>