<svg width="32" height="33" viewBox="0 0 32 33" fill="none" xmlns="http://www.w3.org/2000/svg">
<g id="close" clip-path="url(#clip0_53_10040)">
<path id="Vector" d="M20.9427 13.4427L17.8853 16.5L20.9427 19.5573C21.464 20.0787 21.464 20.9213 20.9427 21.4427C20.6827 21.7027 20.3413 21.8333 20 21.8333C19.6587 21.8333 19.3173 21.7027 19.0573 21.4427L16 18.3853L12.9427 21.4427C12.6827 21.7027 12.3413 21.8333 12 21.8333C11.6587 21.8333 11.3173 21.7027 11.0573 21.4427C10.536 20.9213 10.536 20.0787 11.0573 19.5573L14.1147 16.5L11.0573 13.4427C10.536 12.9213 10.536 12.0787 11.0573 11.5573C11.5787 11.036 12.4213 11.036 12.9427 11.5573L16 14.6147L19.0573 11.5573C19.5787 11.036 20.4213 11.036 20.9427 11.5573C21.464 12.0787 21.464 12.9213 20.9427 13.4427ZM32 16.5C32 25.3227 24.8227 32.5 16 32.5C7.17733 32.5 0 25.3227 0 16.5C0 7.67733 7.17733 0.5 16 0.5C24.8227 0.5 32 7.67733 32 16.5ZM29.3333 16.5C29.3333 9.148 23.352 3.16667 16 3.16667C8.648 3.16667 2.66667 9.148 2.66667 16.5C2.66667 23.852 8.648 29.8333 16 29.8333C23.352 29.8333 29.3333 23.852 29.3333 16.5Z" fill="#FF7CA3"/>
</g>
<defs>
<clipPath id="clip0_53_10040">
<rect width="32" height="32" fill="white" transform="translate(0 0.5)"/>
</clipPath>
</defs>
</svg>
