<svg width="32" height="32" viewBox="0 0 32 32" fill="none" xmlns="http://www.w3.org/2000/svg">
<g id="croissant" clip-path="url(#clip0_26_978)">
<path id="Vector" d="M7.02969 31.8997L10.7254 31.1117C10.9242 31.0719 11.0834 30.9923 11.2027 30.8466L30.8703 11.1789C31.1885 10.8608 31.8316 7.43432 31.8977 6.94382C32.3088 4.78269 31.4603 2.58182 29.7102 1.22951C26.8332 -0.958118 22.7099 -0.122869 20.8935 2.91332L18.4076 6.67113L6.70819 18.3706L2.91969 20.8953C-0.567313 22.9769 -1.05781 27.9752 2.13744 30.6402C3.50306 31.7671 5.27962 32.2178 7.02969 31.8997Z" fill="#FCBF29"/>
<path id="Vector_2" d="M2.13744 30.6402C-1.05775 27.9752 -0.567312 22.9769 2.91969 20.8953L6.70819 18.3706L12.5513 12.5275L21.0366 21.0128L11.2028 30.8466C11.0834 30.9924 10.9243 31.072 10.7255 31.1117L7.02975 31.8997C5.27962 32.2178 3.50306 31.7671 2.13744 30.6402Z" fill="#FEDB41"/>
<path id="Vector_3" d="M10.6988 31.4034C11.4016 31.7879 12.1706 32.0001 12.9396 32C13.5759 32 14.2123 31.8674 14.8089 31.589L18.9152 29.7897C19.0213 29.7633 21.726 27.0851 24.4041 24.3804C27.0823 21.7022 29.7472 18.9842 29.8135 18.8384L31.6261 14.7189C32.8194 11.8551 30.9898 8.69962 28.0994 8.24887L18.1955 6.11431C16.6576 5.82256 15.0173 6.34912 13.9168 7.47612L10.7083 10.6846L7.48656 13.9329C6.35963 15.0599 5.84631 16.7134 6.15125 18.2381L8.32569 28.0492C8.55106 29.4942 9.42606 30.714 10.6988 31.4034Z" fill="#FE9923"/>
<path id="Vector_4" d="M8.32569 28.0491L6.15125 18.238C5.84631 16.7132 6.35963 15.0597 7.48656 13.9328L10.7083 10.6845L24.4041 24.3803C21.726 27.0849 19.0213 29.7632 18.9152 29.7896L14.8089 31.5889C14.2123 31.8674 13.5759 31.9999 12.9396 31.9999C12.1706 32 11.4016 31.7878 10.6988 31.4034C9.42606 30.714 8.55106 29.4942 8.32569 28.0491Z" fill="#FEA832"/>
<path id="Vector_5" d="M24.7223 29.8162L29.8532 24.6852C32.0144 22.5241 31.5768 18.9311 28.965 17.3535L15.6139 9.33225C13.8108 8.2715 11.5436 8.55 10.0588 10.0349C9.18375 10.9099 8.73294 12.0501 8.71975 13.2301C8.73294 14.0389 8.93188 14.8476 9.36938 15.5768L17.3906 28.9279C18.9418 31.5399 22.5612 31.9773 24.7223 29.8162Z" fill="#FCBF29"/>
<path id="Vector_6" d="M17.3906 28.9279L9.36931 15.5769C8.93175 14.8477 8.73287 14.0389 8.71969 13.2301C8.73287 12.0502 9.18369 10.9099 10.0587 10.0349L27.2811 27.2574L24.7223 29.8162C22.5612 31.9773 18.9417 31.5399 17.3906 28.9279Z" fill="#FEDB41"/>
</g>
<defs>
<clipPath id="clip0_26_978">
<rect width="32" height="32" fill="white"/>
</clipPath>
</defs>
</svg>
