<svg width="32" height="32" viewBox="0 0 32 32" fill="none" xmlns="http://www.w3.org/2000/svg">
<g id="Group">
<g id="Group_2">
<g id="Group_3">
<g id="Group_4">
<path id="Vector" d="M22.6747 31.7811C22.5391 31.7811 22.4037 31.7517 22.2784 31.6933C22.0531 31.5882 21.8787 31.3979 21.7937 31.1642L14.6104 11.4281C14.4333 10.9416 14.6841 10.4036 15.1707 10.2265L23.5585 7.17354C23.7923 7.08861 24.05 7.09986 24.2754 7.20486C24.5007 7.30998 24.6751 7.50029 24.7601 7.73392L31.9435 27.47C32.0286 27.7036 32.0173 27.9614 31.9123 28.1868C31.8072 28.4121 31.6169 28.5865 31.3832 28.6716L22.9954 31.7245C22.8916 31.7623 22.783 31.7811 22.6747 31.7811Z" fill="#A3EFFF"/>
</g>
<path id="Vector_2" d="M24.2754 7.20491C24.0501 7.09991 23.7923 7.0886 23.5585 7.1736L19.3646 8.70004L27.1893 30.1981L31.3832 28.6717C31.6168 28.5866 31.8071 28.4122 31.9122 28.1869C32.0173 27.9615 32.0285 27.7037 31.9434 27.4701L24.7601 7.73398C24.6751 7.50035 24.5007 7.31004 24.2754 7.20491Z" fill="#6AD9EB"/>
</g>
<g id="Group_5">
<g id="Group_6">
<path id="Vector_3" d="M23.2974 15.4063C22.8361 15.4064 22.4341 15.0657 22.3698 14.5957L21.0329 4.82549C20.9987 4.57593 21.0665 4.32311 21.2209 4.12399C21.3752 3.92493 21.6032 3.7963 21.8534 3.76718L28.6254 2.9793C29.1395 2.91955 29.6052 3.2878 29.665 3.80218C29.7249 4.31649 29.3564 4.78193 28.8421 4.84174L23.0203 5.51911L24.2275 14.3416C24.2977 14.8546 23.9387 15.3273 23.4257 15.3976C23.3827 15.4034 23.3397 15.4063 23.2974 15.4063Z" fill="#006D78"/>
</g>
<path id="Vector_4" d="M23.4257 15.3975C23.9387 15.3273 24.2977 14.8545 24.2275 14.3416L23.2615 7.28168L21.4588 7.9378L22.3698 14.5957C22.4341 15.0656 22.8361 15.4063 23.2974 15.4062C23.3397 15.4063 23.3827 15.4034 23.4257 15.3975Z" fill="#00A2B2"/>
</g>
<g id="Group_7">
<path id="Vector_5" d="M21.7937 31.1642C21.8787 31.3979 22.0531 31.5882 22.2784 31.6933C22.4037 31.7517 22.539 31.7811 22.6747 31.7811C22.783 31.7811 22.8916 31.7623 22.9953 31.7246L31.3832 28.6717C31.6168 28.5866 31.8071 28.4122 31.9122 28.1869C32.0173 27.9615 32.0285 27.7037 31.9434 27.47L26.8701 13.5312H15.3758L21.7937 31.1642Z" fill="#E48BFC"/>
<path id="Vector_6" d="M21.123 13.5312L27.1892 30.1981L31.3831 28.6717C31.6168 28.5866 31.8071 28.4122 31.9121 28.1869C32.0172 27.9615 32.0285 27.7037 31.9434 27.4701L26.8701 13.5312L21.123 13.5312Z" fill="#735191"/>
</g>
</g>
<g id="Group_8" opacity="0.99">
<g id="Group_9">
<path id="Vector_7" d="M9.32531 29.0271C9.217 29.0271 9.10844 29.0082 9.00469 28.9706L0.616873 25.9176C0.383248 25.8326 0.192936 25.6582 0.0878731 25.4328C-0.0171894 25.2075 -0.0284394 24.9497 0.0566231 24.716L7.23987 4.97993C7.32487 4.74631 7.49925 4.55599 7.72462 4.45087C7.94994 4.34581 8.20781 4.33468 8.4415 4.41956L16.8293 7.47249C17.3159 7.64962 17.5667 8.18756 17.3896 8.67412L10.2063 28.4102C10.1213 28.6438 9.94694 28.8341 9.72156 28.9392C9.59631 28.9976 9.461 29.0271 9.32531 29.0271Z" fill="#A3EFFF"/>
<path id="Vector_8" d="M16.8293 7.4725L12.6354 5.94606L4.81076 27.4441L9.0047 28.9705C9.10845 29.0082 9.21695 29.0271 9.32532 29.027C9.46095 29.027 9.59626 28.9976 9.72157 28.9392C9.94689 28.8341 10.1213 28.6437 10.2063 28.4101L17.3896 8.67406C17.5668 8.18756 17.3159 7.64962 16.8293 7.4725Z" fill="#6AD9EB"/>
</g>
<g id="Group_10">
<g id="Group_11">
<path id="Vector_9" d="M8.97299 12.0459C8.93068 12.0459 8.8878 12.0431 8.84468 12.0371C8.33168 11.9669 7.97274 11.4942 8.04293 10.9812L9.16712 2.76493L3.34537 2.08762C2.83105 2.02781 2.46262 1.56237 2.52249 1.04806C2.5823 0.533808 3.04824 0.165496 3.56205 0.225184L10.3341 1.01312C10.5843 1.04225 10.8122 1.17087 10.9666 1.36993C11.121 1.56906 11.1887 1.82181 11.1546 2.07143L9.90062 11.2354C9.83637 11.7053 9.43437 12.0459 8.97299 12.0459Z" fill="#735191"/>
</g>
<path id="Vector_10" d="M9.90066 11.2354L10.7198 5.24881L8.9171 4.59274L8.04298 10.9812C7.97279 11.4942 8.33173 11.9669 8.84473 12.0372C8.88785 12.0431 8.93073 12.046 8.97304 12.046C9.43435 12.0459 9.83635 11.7053 9.90066 11.2354Z" fill="#E48BFC"/>
</g>
<g id="Group_12">
<path id="Vector_11" d="M5.35056 10.1709L0.0565621 24.716C-0.0285004 24.9496 -0.0172504 25.2074 0.0878121 25.4328C0.192875 25.6581 0.383187 25.8326 0.616812 25.9176L9.00469 28.9706C9.10844 29.0082 9.21694 29.0271 9.32531 29.0271C9.46094 29.0271 9.59625 28.9976 9.72156 28.9392C9.94687 28.8341 10.1213 28.6438 10.2063 28.4102L16.8449 10.1709H5.35056Z" fill="#FFCF2C"/>
<path id="Vector_12" d="M11.0977 10.1708L4.81076 27.4441L9.0047 28.9705C9.10845 29.0082 9.21695 29.0271 9.32532 29.027C9.46095 29.027 9.59626 28.9976 9.72157 28.9392C9.94689 28.8341 10.1213 28.6437 10.2063 28.4101L16.8449 10.1708H11.0977Z" fill="#FFA81C"/>
</g>
</g>
</g>
</svg>
