<svg width="32" height="32" viewBox="0 0 32 32" fill="none" xmlns="http://www.w3.org/2000/svg">
<g id="tea-cup" clip-path="url(#clip0_26_983)">
<path id="Vector" d="M26.7826 23.6521H23.4633C22.8873 23.6521 22.4198 23.1851 22.4198 22.6086C22.4198 22.0322 22.8873 21.5651 23.4633 21.5651H26.7826C28.5088 21.5651 29.9131 20.1609 29.9131 18.4347C29.9131 16.7085 28.5088 15.3043 26.7826 15.3043H26.087C25.5109 15.3043 25.0435 14.8372 25.0435 14.2608C25.0435 13.6843 25.5109 13.2173 26.087 13.2173H26.7826C29.6596 13.2173 32 15.5576 32 18.4346C32 21.3116 29.6596 23.6521 26.7826 23.6521Z" fill="#F28618"/>
<path id="Vector_2" d="M14.6087 27.826C7.70451 27.826 2.08694 22.2088 2.08694 15.3042V12.1738C2.08694 11.5974 2.55438 11.1303 3.13044 11.1303H26.0869C26.663 11.1303 27.1304 11.5974 27.1304 12.1738V15.3042C27.1304 22.2089 21.5129 27.826 14.6087 27.826Z" fill="#FFC033"/>
<path id="Vector_3" d="M26.0869 11.1304H14.6087V27.826C21.5129 27.826 27.1304 22.2088 27.1304 15.3042V12.1738C27.1304 11.5974 26.663 11.1304 26.0869 11.1304Z" fill="#F9A926"/>
<path id="Vector_4" d="M8.34782 8.34775C8.08082 8.34775 7.81382 8.24582 7.61007 8.042C7.20251 7.63444 7.20251 6.97344 7.61007 6.56613L8.16169 6.01482C8.27919 5.897 8.33419 5.72707 8.30775 5.56169C8.28057 5.39763 8.17532 5.25425 8.02582 5.17957L7.73644 5.03488C6.98913 4.66094 6.46257 3.94525 6.32807 3.12025C6.19494 2.29419 6.46732 1.44875 7.05769 0.857691L7.60994 0.305441C8.01751 -0.101496 8.67788 -0.101809 9.0855 0.305816C9.49313 0.713441 9.49307 1.37438 9.0855 1.78169L8.53388 2.333C8.41638 2.45082 8.36138 2.62075 8.38782 2.78613C8.41501 2.95019 8.52026 3.09357 8.66976 3.16825L8.95913 3.31294C9.70638 3.68694 10.2329 4.40263 10.3674 5.22763C10.5005 6.05369 10.2281 6.89913 9.63775 7.49019L9.0855 8.04244C8.88182 8.24594 8.61482 8.34775 8.34782 8.34775Z" fill="#FFE0B2"/>
<path id="Vector_5" d="M20.8696 8.34775C20.6026 8.34775 20.3356 8.24582 20.1318 8.042C19.7242 7.63444 19.7242 6.97344 20.1318 6.56613L20.6834 6.01482C20.8009 5.89701 20.8559 5.72707 20.8295 5.56169C20.8023 5.39763 20.6971 5.25426 20.5476 5.17957L20.2582 5.03488C19.5109 4.66088 18.9844 3.94519 18.8499 3.12019C18.7168 2.29413 18.9892 1.44869 19.5796 0.85763L20.1318 0.30538C20.5394 -0.101557 21.1997 -0.10187 21.6074 0.305755C22.015 0.71338 22.0149 1.37432 21.6074 1.78163L21.0557 2.33294C20.9382 2.45076 20.8832 2.62069 20.9097 2.78607C20.9369 2.95013 21.0421 3.09351 21.1916 3.16819L21.481 3.31288C22.2282 3.68688 22.7548 4.40257 22.8892 5.22757C23.0224 6.05363 22.75 6.89907 22.1596 7.49013L21.6074 8.04238C21.4036 8.24594 21.1366 8.34775 20.8696 8.34775Z" fill="#FDCD99"/>
<path id="Vector_6" d="M14.6087 8.34775C14.3417 8.34775 14.0747 8.24582 13.8709 8.042C13.4634 7.63444 13.4634 6.97344 13.8709 6.56613L14.4226 6.01482C14.5401 5.89701 14.5951 5.72707 14.5686 5.56169C14.5414 5.39763 14.4362 5.25426 14.2867 5.17957L13.9973 5.03488C13.2501 4.66088 12.7235 3.94519 12.5891 3.12019C12.4559 2.29413 12.7283 1.44869 13.3187 0.85763L13.8709 0.30538C14.2785 -0.101557 14.9389 -0.10187 15.3465 0.305755C15.7541 0.713318 15.7541 1.37432 15.3465 1.78163L14.7949 2.33294C14.6774 2.45076 14.6224 2.62069 14.6488 2.78607C14.676 2.95013 14.7813 3.09351 14.9308 3.16819L15.2201 3.31288C15.9674 3.68688 16.4939 4.40257 16.6284 5.22757C16.7615 6.05363 16.4891 6.89907 15.8988 7.49013L15.3465 8.04238C15.1427 8.24594 14.8757 8.34775 14.6087 8.34775Z" fill="#FFE0B2"/>
<path id="Vector_7" d="M15.3464 8.04243L15.8987 7.49018C16.489 6.89918 16.7614 6.05375 16.6283 5.22762C16.4938 4.40256 15.9673 3.68687 15.2201 3.31293L14.9307 3.16825C14.7813 3.09356 14.6759 2.95018 14.6488 2.78612C14.6223 2.62068 14.6773 2.45087 14.7948 2.333L15.3464 1.78168C15.754 1.37443 15.754 0.713433 15.3464 0.305808C15.1426 0.101996 14.8756 0.000183105 14.6087 0.000183105V8.34793C14.8757 8.34774 15.1427 8.24593 15.3464 8.04243Z" fill="#FDCD99"/>
<path id="Vector_8" d="M24 31.9999H5.21737C2.34037 31.9999 0 29.6596 0 26.7826C0 26.2061 0.467437 25.7391 1.0435 25.7391H28.1739C28.75 25.7391 29.2174 26.2061 29.2174 26.7826C29.2174 29.6596 26.877 31.9999 24 31.9999Z" fill="#A6673A"/>
<path id="Vector_9" d="M28.1739 25.7391H14.6087V31.9999H24C26.877 31.9999 29.2174 29.6596 29.2174 26.7826C29.2174 26.2061 28.75 25.7391 28.1739 25.7391Z" fill="#99522E"/>
<path id="Vector_10" d="M10.4348 11.1304V16.3477C10.4348 16.9242 10.9023 17.3912 11.4783 17.3912C12.0544 17.3912 12.5218 16.9242 12.5218 16.3477V11.1304H10.4348Z" fill="#736056"/>
<path id="Vector_11" d="M11.4782 21.5652C9.75206 21.5652 8.34781 20.1609 8.34781 18.4347V16.3478C8.34781 15.7714 8.81525 15.3043 9.39131 15.3043H13.5652C14.1413 15.3043 14.6087 15.7714 14.6087 16.3478V18.4347C14.6087 20.161 13.2044 21.5652 11.4782 21.5652Z" fill="#A6673A"/>
</g>
<defs>
<clipPath id="clip0_26_983">
<rect width="32" height="32" fill="white"/>
</clipPath>
</defs>
</svg>
